<svg width="47" height="42" viewBox="0 0 47 42" fill="none" xmlns="http://www.w3.org/2000/svg">
<path fill-rule="evenodd" clip-rule="evenodd" d="M12.6907 28.2964C12.4219 27.0939 12.2801 25.8435 12.2801 24.5599C12.2801 16.6157 17.7115 9.94009 25.0635 8.04391C22.9341 6.15031 20.1291 5 17.0554 5C10.3974 5 5 10.3974 5 17.0554C5 22.1741 8.19013 26.5477 12.6907 28.2964ZM15.131 34.0035C6.61753 33.0475 0 25.8243 0 17.0554C0 7.63598 7.63598 0 17.0554 0C22.9824 0 28.2033 3.02329 31.26 7.61185C39.7734 8.56787 46.3909 15.7911 46.3909 24.5599C46.3909 33.9794 38.755 41.6153 29.3355 41.6153C23.4085 41.6153 18.1877 38.592 15.131 34.0035ZM21.3275 33.5714C23.4568 35.465 26.2618 36.6153 29.3355 36.6153C35.9935 36.6153 41.3909 31.2179 41.3909 24.5599C41.3909 19.4412 38.2008 15.0677 33.7003 13.3189C33.9691 14.5214 34.1109 15.7719 34.1109 17.0554C34.1109 24.9996 28.6794 31.6753 21.3275 33.5714ZM28.2421 12.5534C22.0965 13.1059 17.2801 18.2704 17.2801 24.5599C17.2801 26.1515 17.5885 27.671 18.1488 29.0619C24.2945 28.5094 29.1109 23.3449 29.1109 17.0554C29.1109 15.4639 28.8024 13.9444 28.2421 12.5534Z" fill="#D6D6D6"/>
</svg>
